<svg width="49" height="49" viewBox="0 0 49 49" fill="none" xmlns="http://www.w3.org/2000/svg">
<rect x="0.5" y="0.5" width="48" height="48" rx="4.5" fill="#FFC94B" stroke="#FFC94B"/>
<path d="M13.7369 24.8919C13.7385 24.7523 13.7641 24.6142 13.812 24.4831C13.9512 24.1116 14.2766 23.8418 14.6673 23.7736L14.794 23.7736L29.6643 23.7173C30.0537 23.7173 30.3692 24.0327 30.3692 24.4219C30.3692 24.8111 30.0537 25.1268 29.6643 25.1268L15.4283 25.1268L21.1464 32.9122C21.2688 33.0615 21.3248 33.2545 21.3008 33.4461C21.2771 33.638 21.1757 33.8114 21.0202 33.9262C20.865 34.041 20.6692 34.0868 20.4791 34.0532C20.2887 34.0197 20.1207 33.9095 20.0141 33.7484L13.9673 25.5402C13.8217 25.3552 13.7408 25.1273 13.737 24.8919L13.7369 24.8919ZM14.7471 22.0727C14.7467 21.8987 14.8122 21.7308 14.9303 21.603L20.7377 15.1803C20.8564 15.0222 21.0362 14.9212 21.2332 14.902C21.4302 14.8828 21.6259 14.9474 21.7729 15.0798C21.9199 15.2123 22.0046 15.4004 22.006 15.5982C22.0075 15.796 21.9257 15.9854 21.7808 16.12L15.9734 22.5427C15.8474 22.681 15.6719 22.7638 15.4851 22.7727C15.2982 22.7813 15.1155 22.7157 14.9773 22.5897C14.8303 22.4582 14.7465 22.2701 14.7471 22.0727L14.7471 22.0727ZM31.0319 24.422L31.0317 24.422C31.0317 24.0328 31.3474 23.7173 31.7366 23.7173L33.8602 23.7173C34.2502 23.7173 34.5671 24.0319 34.5696 24.422C34.5696 24.8112 34.2541 25.1269 33.8649 25.1269L31.7411 25.1269C31.3513 25.1269 31.0344 24.812 31.0317 24.422L31.0319 24.422Z" fill="#4A6163"/>
</svg>
