<svg width="37" height="37" viewBox="0 0 37 37" fill="none" xmlns="http://www.w3.org/2000/svg">
<path d="M7.73686 18.8919C7.73852 18.7523 7.76412 18.6142 7.81202 18.4831C7.95119 18.1116 8.27659 17.8418 8.66725 17.7736L8.79402 17.7736L23.6643 17.7173C24.0537 17.7173 24.3692 18.0327 24.3692 18.4219C24.3692 18.8111 24.0537 19.1268 23.6643 19.1268L9.42831 19.1268L15.1464 26.9122C15.2688 27.0615 15.3248 27.2545 15.3008 27.4461C15.2771 27.638 15.1757 27.8114 15.0202 27.9262C14.865 28.041 14.6692 28.0868 14.4791 28.0532C14.2887 28.0197 14.1207 27.9095 14.0141 27.7484L7.96725 19.5402C7.82169 19.3552 7.74075 19.1273 7.73703 18.8919L7.73686 18.8919ZM8.74712 16.0727C8.74671 15.8987 8.81216 15.7308 8.93026 15.603L14.7377 9.18033C14.8564 9.02217 15.0362 8.92121 15.2332 8.902C15.4302 8.8828 15.6259 8.94743 15.7729 9.07978C15.9199 9.21233 16.0046 9.40043 16.006 9.59823C16.0075 9.79604 15.9257 9.98537 15.7808 10.12L9.97337 16.5427C9.84742 16.681 9.67192 16.7638 9.48506 16.7727C9.2982 16.7813 9.11547 16.7157 8.97734 16.5897C8.83033 16.4582 8.7465 16.2701 8.74712 16.0727L8.74712 16.0727ZM25.0319 18.422L25.0317 18.422C25.0317 18.0328 25.3474 17.7173 25.7366 17.7173L27.8602 17.7173C28.2502 17.7173 28.5671 18.0319 28.5696 18.422C28.5696 18.8112 28.2541 19.1269 27.8649 19.1269L25.7411 19.1269C25.3513 19.1269 25.0344 18.812 25.0317 18.422L25.0319 18.422Z" fill="#FFC94B"/>
</svg>
