<svg width="48" height="48" viewBox="0 0 48 48" fill="none" xmlns="http://www.w3.org/2000/svg">
<path d="M0 5C0 2.23858 2.23858 0 5 0H43C45.7614 0 48 2.23858 48 5V43C48 45.7614 45.7614 48 43 48H5C2.23858 48 0 45.7614 0 43V5Z" fill="#FFC94B"/>
<path d="M35.1658 15.2296C34.9586 14.9809 34.6516 14.8372 34.3279 14.8378H25.3082C24.9197 14.8378 24.5603 15.0452 24.366 15.3818C24.1718 15.7185 24.1718 16.1333 24.366 16.4698C24.5603 16.8064 24.9197 17.0138 25.3082 17.0138H33.0194L31.5397 24.9994C31.4585 25.4366 31.2268 25.8312 30.8851 26.1155C30.5432 26.3997 30.1129 26.5553 29.6683 26.5554H19.9035C19.4558 26.5551 19.0224 26.397 18.6798 26.109C18.3371 25.821 18.1068 25.4214 18.0294 24.9805L16.6178 16.924C16.4738 16.1045 16.0454 15.3621 15.4081 14.8274C14.7708 14.2925 13.9653 13.9996 13.1334 14H11.0881C10.6993 14 10.3402 14.2074 10.1457 14.544C9.9514 14.8805 9.9514 15.2953 10.1457 15.6319C10.3402 15.9686 10.6993 16.176 11.0881 16.176H13.1334C13.4532 16.1762 13.7629 16.2893 14.0076 16.4953C14.2524 16.7012 14.4167 16.9869 14.4717 17.302L15.886 25.3586C16.0518 26.3038 16.5453 27.1605 17.2801 27.7779C18.015 28.3953 18.9437 28.7338 19.9036 28.7342H29.6655C30.6204 28.7338 31.5449 28.3983 32.2779 27.7866C33.011 27.1747 33.5064 26.3251 33.6775 25.3857L35.3993 16.1105C35.4541 15.7967 35.3686 15.4747 35.1654 15.2294L35.1658 15.2296Z" fill="#4A6163"/>
<path d="M20.1951 35.6835C21.0153 35.6835 21.8022 35.3576 22.3821 34.7774C22.9621 34.1974 23.2879 33.4103 23.2878 32.59C23.2874 31.7697 22.9612 30.9829 22.3808 30.4031C21.8006 29.8233 21.0136 29.4979 20.1932 29.4983C19.3728 29.4989 18.5862 29.8252 18.0065 30.4058C17.4269 30.9864 17.1017 31.7734 17.1025 32.5938C17.1038 33.4132 17.4301 34.1987 18.01 34.778C18.5898 35.3573 19.3755 35.683 20.1951 35.6836V35.6835ZM20.1951 31.6743C20.4382 31.6743 20.6713 31.7709 20.8433 31.9428C21.0152 32.1147 21.1117 32.3478 21.1117 32.5909C21.1117 32.8341 21.0152 33.0671 20.8433 33.239C20.6714 33.4109 20.4382 33.5075 20.1951 33.5075C19.9519 33.5075 19.7187 33.4109 19.5468 33.239C19.3749 33.0671 19.2783 32.8341 19.2783 32.5909C19.2819 32.3492 19.3796 32.1183 19.551 31.9477C19.7221 31.777 19.9532 31.6798 20.1951 31.677V31.6743Z" fill="#4A6163"/>
<path d="M32.7232 32.594C32.7239 31.7736 32.3987 30.9866 31.8189 30.406C31.2392 29.8255 30.4528 29.4991 29.6324 29.4985C28.812 29.4982 28.025 29.8235 27.4446 30.4034C26.8644 30.9832 26.5381 31.77 26.5379 32.5902C26.5377 33.4106 26.8635 34.1976 27.4435 34.7776C28.0235 35.3578 28.8101 35.6838 29.6305 35.6838C30.4502 35.6832 31.2358 35.3574 31.8156 34.7782C32.3953 34.1989 32.7218 33.4134 32.7232 32.5939V32.594ZM28.7139 32.594C28.7139 32.3508 28.8105 32.1176 28.9824 31.9457C29.1543 31.7738 29.3875 31.6772 29.6305 31.6772C29.8736 31.6772 30.1068 31.7738 30.2787 31.9457C30.4506 32.1176 30.5471 32.3508 30.5471 32.594C30.5471 32.8371 30.4506 33.0703 30.2787 33.2422C30.1068 33.4141 29.8736 33.5106 29.6305 33.5106C29.3882 33.5078 29.1568 33.4103 28.9854 33.2389C28.8143 33.0678 28.7168 32.8361 28.7139 32.5941L28.7139 32.594Z" fill="#4A6163"/>
</svg>
