<svg width="254" height="48" viewBox="0 0 254 48" fill="none" xmlns="http://www.w3.org/2000/svg">
<g filter="url(#filter0_b_28_825)">
<mask id="path-1-inside-1_28_825" fill="white">
<rect width="254" height="48" rx="3"/>
</mask>
<rect width="254" height="48" rx="3" stroke="#FFC94B" stroke-width="12" mask="url(#path-1-inside-1_28_825)"/>
<path d="M37.2097 37V10.8182H43.5378V21.8892H43.883L52.5378 10.8182H59.9909L50.7097 22.5028L60.1571 37H52.5889L46.069 26.7088L43.5378 29.9048V37H37.2097ZM59.607 37V17.3636H65.6794V20.9432H65.884C66.2419 19.6477 66.8258 18.6847 67.6354 18.054C68.4451 17.4148 69.3868 17.0952 70.4607 17.0952C70.7505 17.0952 71.0488 17.1165 71.3556 17.1591C71.6624 17.1932 71.9479 17.2486 72.2121 17.3253V22.7585C71.9138 22.6562 71.5218 22.5753 71.036 22.5156C70.5587 22.456 70.1326 22.4261 69.7576 22.4261C69.0161 22.4261 68.3471 22.5923 67.7505 22.9247C67.1624 23.2486 66.6979 23.7045 66.357 24.2926C66.0246 24.8722 65.8584 25.554 65.8584 26.3381V37H59.607ZM80.0388 37.3707C77.9848 37.3707 76.2121 36.9659 74.7206 36.1562C73.2377 35.3381 72.0956 34.1747 71.2945 32.6662C70.5019 31.1491 70.1056 29.3466 70.1056 27.2585C70.1056 25.2301 70.5061 23.4574 71.3073 21.9403C72.1084 20.4148 73.2377 19.2301 74.695 18.3864C76.1524 17.5341 77.8698 17.108 79.847 17.108C81.2448 17.108 82.5232 17.3253 83.6823 17.7599C84.8413 18.1946 85.8428 18.8381 86.6865 19.6903C87.5303 20.5426 88.1865 21.5952 88.6553 22.848C89.124 24.0923 89.3584 25.5199 89.3584 27.1307V28.6903H72.2916V25.0597H83.5416C83.5331 24.3949 83.3754 23.8026 83.0686 23.2827C82.7618 22.7628 82.3399 22.358 81.803 22.0682C81.2746 21.7699 80.6652 21.6207 79.9749 21.6207C79.276 21.6207 78.6496 21.7784 78.0956 22.0938C77.5416 22.4006 77.1027 22.8224 76.7788 23.3594C76.455 23.8878 76.2845 24.4886 76.2675 25.1619V28.8565C76.2675 29.6577 76.4252 30.3608 76.7405 30.9659C77.0558 31.5625 77.5033 32.027 78.0828 32.3594C78.6624 32.6918 79.3527 32.858 80.1538 32.858C80.7078 32.858 81.2107 32.7812 81.6624 32.6278C82.1141 32.4744 82.5019 32.2486 82.8257 31.9503C83.1496 31.652 83.3925 31.2855 83.5544 30.8509L89.2945 31.017C89.0558 32.304 88.5317 33.4247 87.722 34.3793C86.9209 35.3253 85.8683 36.0625 84.5644 36.5909C83.2604 37.1108 81.7519 37.3707 80.0388 37.3707ZM95.2067 37.3324C93.9539 37.3324 92.8417 37.1236 91.8701 36.706C90.907 36.2798 90.1442 35.6406 89.5817 34.7884C89.0278 33.9276 88.7508 32.8494 88.7508 31.554C88.7508 30.4631 88.9425 29.5426 89.3261 28.7926C89.7096 28.0426 90.238 27.4332 90.9113 26.9645C91.5846 26.4957 92.3601 26.142 93.238 25.9034C94.1158 25.6562 95.0533 25.4901 96.0505 25.4048C97.167 25.3026 98.0661 25.196 98.7479 25.0852C99.4297 24.9659 99.9241 24.7997 100.231 24.5866C100.546 24.3651 100.704 24.054 100.704 23.6534V23.5895C100.704 22.9332 100.478 22.4261 100.026 22.0682C99.5746 21.7102 98.9653 21.5312 98.1982 21.5312C97.3715 21.5312 96.7067 21.7102 96.2039 22.0682C95.7011 22.4261 95.3815 22.9205 95.2451 23.5511L89.4795 23.3466C89.6499 22.1534 90.0888 21.0881 90.7962 20.1506C91.5121 19.2045 92.4922 18.4631 93.7366 17.9261C94.9894 17.3807 96.4937 17.108 98.2493 17.108C99.5022 17.108 100.657 17.2571 101.714 17.5554C102.771 17.8452 103.691 18.2713 104.475 18.8338C105.259 19.3878 105.864 20.0696 106.291 20.8793C106.725 21.6889 106.943 22.6136 106.943 23.6534V37H101.062V34.2642H100.908C100.559 34.929 100.112 35.4915 99.5661 35.9517C99.0292 36.4119 98.3942 36.7571 97.6613 36.9872C96.9368 37.2173 96.1187 37.3324 95.2067 37.3324ZM97.1371 33.2415C97.8104 33.2415 98.4155 33.1051 98.9525 32.8324C99.4979 32.5597 99.9326 32.1847 100.256 31.7074C100.58 31.2216 100.742 30.6591 100.742 30.0199V28.1534C100.563 28.2472 100.346 28.3324 100.09 28.4091C99.8431 28.4858 99.5704 28.5582 99.2721 28.6264C98.9738 28.6946 98.667 28.7543 98.3516 28.8054C98.0363 28.8565 97.7337 28.9034 97.444 28.946C96.8559 29.0398 96.353 29.1847 95.9354 29.3807C95.5263 29.5767 95.211 29.8324 94.9894 30.1477C94.7763 30.4545 94.6698 30.821 94.6698 31.2472C94.6698 31.8949 94.8999 32.3892 95.3601 32.7301C95.8289 33.071 96.4212 33.2415 97.1371 33.2415ZM136.505 20.304H130.113C130.028 19.6477 129.853 19.0554 129.589 18.527C129.325 17.9986 128.975 17.5469 128.54 17.1719C128.106 16.7969 127.59 16.5114 126.994 16.3153C126.406 16.1108 125.754 16.0085 125.038 16.0085C123.768 16.0085 122.673 16.3196 121.752 16.9418C120.84 17.5639 120.137 18.4631 119.643 19.6392C119.157 20.8153 118.914 22.2386 118.914 23.9091C118.914 25.6477 119.161 27.1051 119.656 28.2812C120.158 29.4489 120.862 30.331 121.765 30.9276C122.677 31.5156 123.755 31.8097 124.999 31.8097C125.698 31.8097 126.333 31.7202 126.904 31.5412C127.484 31.3622 127.991 31.1023 128.425 30.7614C128.869 30.4119 129.231 29.9901 129.512 29.4957C129.802 28.9929 130.002 28.4261 130.113 27.7955L136.505 27.8338C136.394 28.9929 136.058 30.1349 135.495 31.2599C134.941 32.3849 134.178 33.4119 133.207 34.3409C132.235 35.2614 131.05 35.9943 129.653 36.5398C128.263 37.0852 126.67 37.358 124.871 37.358C122.502 37.358 120.38 36.8381 118.505 35.7983C116.638 34.75 115.164 33.2244 114.082 31.2216C112.999 29.2187 112.458 26.7812 112.458 23.9091C112.458 21.0284 113.008 18.5866 114.107 16.5838C115.207 14.581 116.694 13.0597 118.569 12.0199C120.444 10.9801 122.545 10.4602 124.871 10.4602C126.457 10.4602 127.923 10.6818 129.269 11.125C130.616 11.5597 131.8 12.1989 132.823 13.0426C133.846 13.8778 134.677 14.9048 135.316 16.1236C135.955 17.3423 136.352 18.7358 136.505 20.304ZM142.782 37.3324C141.529 37.3324 140.417 37.1236 139.445 36.706C138.482 36.2798 137.719 35.6406 137.157 34.7884C136.603 33.9276 136.326 32.8494 136.326 31.554C136.326 30.4631 136.517 29.5426 136.901 28.7926C137.284 28.0426 137.813 27.4332 138.486 26.9645C139.159 26.4957 139.935 26.142 140.813 25.9034C141.691 25.6562 142.628 25.4901 143.625 25.4048C144.742 25.3026 145.641 25.196 146.323 25.0852C147.005 24.9659 147.499 24.7997 147.806 24.5866C148.121 24.3651 148.279 24.054 148.279 23.6534V23.5895C148.279 22.9332 148.053 22.4261 147.601 22.0682C147.149 21.7102 146.54 21.5312 145.773 21.5312C144.946 21.5312 144.282 21.7102 143.779 22.0682C143.276 22.4261 142.956 22.9205 142.82 23.5511L137.054 23.3466C137.225 22.1534 137.664 21.0881 138.371 20.1506C139.087 19.2045 140.067 18.4631 141.311 17.9261C142.564 17.3807 144.069 17.108 145.824 17.108C147.077 17.108 148.232 17.2571 149.289 17.5554C150.345 17.8452 151.266 18.2713 152.05 18.8338C152.834 19.3878 153.439 20.0696 153.865 20.8793C154.3 21.6889 154.517 22.6136 154.517 23.6534V37H148.637V34.2642H148.483C148.134 34.929 147.686 35.4915 147.141 35.9517C146.604 36.4119 145.969 36.7571 145.236 36.9872C144.512 37.2173 143.694 37.3324 142.782 37.3324ZM144.712 33.2415C145.385 33.2415 145.99 33.1051 146.527 32.8324C147.073 32.5597 147.507 32.1847 147.831 31.7074C148.155 31.2216 148.317 30.6591 148.317 30.0199V28.1534C148.138 28.2472 147.921 28.3324 147.665 28.4091C147.418 28.4858 147.145 28.5582 146.847 28.6264C146.549 28.6946 146.242 28.7543 145.926 28.8054C145.611 28.8565 145.309 28.9034 145.019 28.946C144.431 29.0398 143.928 29.1847 143.51 29.3807C143.101 29.5767 142.786 29.8324 142.564 30.1477C142.351 30.4545 142.245 30.821 142.245 31.2472C142.245 31.8949 142.475 32.3892 142.935 32.7301C143.404 33.071 143.996 33.2415 144.712 33.2415ZM161.098 31.848L161.123 24.3949H161.992L167.515 17.3636H174.598L166.39 27.4375H164.741L161.098 31.848ZM155.46 37V10.8182H161.711V37H155.46ZM167.656 37L162.517 28.8438L166.633 24.4077L174.879 37H167.656ZM182.325 37.3707C180.271 37.3707 178.498 36.9659 177.007 36.1562C175.524 35.3381 174.382 34.1747 173.581 32.6662C172.788 31.1491 172.392 29.3466 172.392 27.2585C172.392 25.2301 172.793 23.4574 173.594 21.9403C174.395 20.4148 175.524 19.2301 176.981 18.3864C178.439 17.5341 180.156 17.108 182.133 17.108C183.531 17.108 184.81 17.3253 185.969 17.7599C187.128 18.1946 188.129 18.8381 188.973 19.6903C189.817 20.5426 190.473 21.5952 190.942 22.848C191.41 24.0923 191.645 25.5199 191.645 27.1307V28.6903H174.578V25.0597H185.828C185.82 24.3949 185.662 23.8026 185.355 23.2827C185.048 22.7628 184.626 22.358 184.089 22.0682C183.561 21.7699 182.952 21.6207 182.261 21.6207C181.562 21.6207 180.936 21.7784 180.382 22.0938C179.828 22.4006 179.389 22.8224 179.065 23.3594C178.741 23.8878 178.571 24.4886 178.554 25.1619V28.8565C178.554 29.6577 178.712 30.3608 179.027 30.9659C179.342 31.5625 179.79 32.027 180.369 32.3594C180.949 32.6918 181.639 32.858 182.44 32.858C182.994 32.858 183.497 32.7812 183.949 32.6278C184.4 32.4744 184.788 32.2486 185.112 31.9503C185.436 31.652 185.679 31.2855 185.841 30.8509L191.581 31.017C191.342 32.304 190.818 33.4247 190.008 34.3793C189.207 35.3253 188.155 36.0625 186.851 36.5909C185.547 37.1108 184.038 37.3707 182.325 37.3707ZM209.101 23.3594L203.361 23.5128C203.301 23.1037 203.139 22.7415 202.875 22.4261C202.611 22.1023 202.266 21.8509 201.84 21.6719C201.422 21.4844 200.936 21.3906 200.382 21.3906C199.658 21.3906 199.04 21.5355 198.529 21.8253C198.026 22.1151 197.779 22.5071 197.787 23.0014C197.779 23.3849 197.932 23.7173 198.247 23.9986C198.571 24.2798 199.147 24.5057 199.973 24.6761L203.757 25.392C205.718 25.767 207.175 26.3892 208.13 27.2585C209.093 28.1278 209.578 29.2784 209.587 30.7102C209.578 32.0568 209.178 33.2287 208.385 34.2259C207.601 35.223 206.527 35.9986 205.164 36.5526C203.8 37.098 202.24 37.3707 200.485 37.3707C197.681 37.3707 195.469 36.7955 193.85 35.6449C192.239 34.4858 191.318 32.9347 191.088 30.9915L197.263 30.8381C197.399 31.554 197.753 32.0994 198.324 32.4744C198.895 32.8494 199.624 33.0369 200.51 33.0369C201.311 33.0369 201.963 32.8878 202.466 32.5895C202.969 32.2912 203.225 31.8949 203.233 31.4006C203.225 30.9574 203.029 30.6037 202.645 30.3395C202.262 30.0668 201.661 29.8537 200.843 29.7003L197.416 29.0483C195.448 28.6903 193.982 28.0298 193.019 27.0668C192.056 26.0952 191.578 24.8594 191.587 23.3594C191.578 22.0469 191.928 20.9261 192.635 19.9972C193.343 19.0597 194.348 18.3438 195.652 17.8494C196.956 17.3551 198.495 17.108 200.267 17.108C202.926 17.108 205.023 17.6662 206.557 18.7827C208.091 19.8906 208.939 21.4162 209.101 23.3594ZM213.3 37.3707C212.38 37.3707 211.591 37.0469 210.935 36.3991C210.288 35.7514 209.968 34.9673 209.976 34.0469C209.968 33.1435 210.288 32.3722 210.935 31.733C211.591 31.0852 212.38 30.7614 213.3 30.7614C214.17 30.7614 214.937 31.0852 215.601 31.733C216.275 32.3722 216.616 33.1435 216.624 34.0469C216.616 34.6605 216.454 35.2187 216.138 35.7216C215.832 36.2244 215.427 36.625 214.924 36.9233C214.43 37.2216 213.888 37.3707 213.3 37.3707Z" fill="#FFC94B"/>
</g>
<defs>
<filter id="filter0_b_28_825" x="-2000" y="-2000" width="4254" height="4048" filterUnits="userSpaceOnUse" color-interpolation-filters="sRGB">
<feFlood flood-opacity="0" result="BackgroundImageFix"/>
<feGaussianBlur in="BackgroundImage" stdDeviation="1000"/>
<feComposite in2="SourceAlpha" operator="in" result="effect1_backgroundBlur_28_825"/>
<feBlend mode="normal" in="SourceGraphic" in2="effect1_backgroundBlur_28_825" result="shape"/>
</filter>
</defs>
</svg>
