<svg width="48" height="48" viewBox="0 0 48 48" fill="none" xmlns="http://www.w3.org/2000/svg">
<rect x="0.419825" y="0.419825" width="47.1604" height="47.1604" rx="3.77843" fill="#FFC94B" stroke="#FFC94B" stroke-width="0.83965"/>
<path d="M13.4565 24.384C13.4581 24.2473 13.4832 24.112 13.5301 23.9835C13.6665 23.6197 13.9852 23.3553 14.3679 23.2885L14.4921 23.2885L29.0589 23.2333C29.4404 23.2333 29.7494 23.5424 29.7494 23.9236C29.7494 24.3049 29.4404 24.6142 29.0589 24.6142L15.1134 24.6142L20.7148 32.2406C20.8348 32.3868 20.8896 32.5759 20.8661 32.7637C20.8429 32.9516 20.7436 33.1215 20.5913 33.2339C20.4392 33.3464 20.2474 33.3913 20.0611 33.3583C19.8747 33.3255 19.71 33.2175 19.6057 33.0598L13.6822 25.0191C13.5396 24.8379 13.4603 24.6146 13.4567 24.384L13.4565 24.384ZM14.4462 21.6224C14.4457 21.4519 14.5099 21.2874 14.6256 21.1622L20.3145 14.8706C20.4308 14.7157 20.6069 14.6168 20.7999 14.598C20.9928 14.5792 21.1846 14.6425 21.3286 14.7721C21.4726 14.902 21.5555 15.0862 21.5569 15.28C21.5584 15.4738 21.4783 15.6592 21.3363 15.7911L15.6474 22.0827C15.524 22.2182 15.3521 22.2993 15.169 22.308C14.986 22.3165 14.807 22.2522 14.6717 22.1288C14.5277 22 14.4455 21.8157 14.4462 21.6224L14.4462 21.6224ZM30.3986 23.9237L30.3984 23.9237C30.3984 23.5424 30.7076 23.2333 31.0889 23.2333L33.1691 23.2333C33.5512 23.2333 33.8617 23.5416 33.8641 23.9237C33.8641 24.3049 33.555 24.6142 33.1738 24.6142L31.0933 24.6142C30.7115 24.6142 30.401 24.3057 30.3984 23.9237L30.3986 23.9237Z" fill="#4A6163"/>
</svg>
