<svg width="49" height="49" viewBox="0 0 49 49" fill="none" xmlns="http://www.w3.org/2000/svg">
<rect x="0.5" y="0.5" width="48" height="48" rx="4.5" fill="#FFC94B" stroke="#FFC94B"/>
<path d="M25.1177 36.1163C24.8541 36.1163 24.6039 36.0108 24.4194 35.8265L14.4087 25.8158C14.3791 25.7863 14.3493 25.7532 14.3231 25.7204C12.7451 24.1853 11.8788 22.143 11.8788 19.9459C11.8788 15.4987 15.4991 11.8784 19.9463 11.8784C21.8667 11.8784 23.6686 12.5404 25.1181 13.7627C26.5676 12.5407 28.3693 11.8784 30.2899 11.8784C34.7371 11.8784 38.3574 15.4987 38.3574 19.9459C38.3574 22.143 37.4912 24.1888 35.9132 25.7204C35.8869 25.7532 35.8604 25.7863 35.8309 25.8158L33.4656 28.181C33.0801 28.5666 32.4545 28.5666 32.0689 28.181C31.6834 27.7955 31.6834 27.1699 32.0689 26.7843L34.3319 24.5213C34.3683 24.4751 34.4044 24.4292 34.4506 24.3896C35.6991 23.2234 36.3843 21.6456 36.3843 19.946C36.3843 16.586 33.6535 13.8551 30.2935 13.8551C28.5971 13.8551 27.0191 14.5436 25.8499 15.7889C25.6653 15.9833 25.4118 16.0984 25.145 16.1017C25.0561 16.1017 24.9637 16.0918 24.8781 16.0689C24.6935 16.0259 24.5224 15.9272 24.3906 15.7889C23.2244 14.5403 21.6466 13.8551 19.947 13.8551C16.587 13.8551 13.8561 16.586 13.8561 19.946C13.8561 21.6423 14.5446 23.2203 15.7899 24.3896C15.8361 24.4325 15.8755 24.4784 15.9118 24.5246L25.1189 33.7317L28.7523 30.0983C29.1379 29.7128 29.7635 29.7128 30.1491 30.0983C30.5346 30.4839 30.5346 31.1095 30.1491 31.495L25.8172 35.8268C25.6327 36.0114 25.3792 36.1167 25.1189 36.1167L25.1177 36.1163Z" fill="#4A6163"/>
</svg>
