<svg width="49" height="49" viewBox="0 0 49 49" fill="none" xmlns="http://www.w3.org/2000/svg">
<path d="M0 6C0 3.23858 2.23858 1 5 1H43C45.7614 1 48 3.23858 48 6V44C48 46.7614 45.7614 49 43 49H5C2.23858 49 0 46.7614 0 44V6Z" fill="#FFC94B"/>
<path d="M33.2965 27.1073H32.2886V20.1797C32.2886 17.126 29.805 14.6456 26.7545 14.6456H25.8883V13.1633C25.8883 12.3036 25.1932 11.6052 24.3335 11.6052C23.4738 11.6052 22.7787 12.3036 22.7787 13.1633V14.6456H21.6653C18.6148 14.6456 16.1312 17.126 16.1312 20.1797V27.1073H15.12C14.1647 27.1073 13.2689 27.5125 12.6066 28.2437C11.961 28.9486 11.6053 29.8808 11.6053 30.8692C11.6053 32.9414 13.1833 34.6279 15.12 34.6279H20.0381C20.1436 36.8416 21.9718 38.6105 24.2085 38.6105C26.4453 38.6105 28.2767 36.8416 28.3823 34.6279H30.9747C31.5216 34.6279 31.9629 34.1865 31.9629 33.6397C31.9629 33.0928 31.5216 32.6515 30.9747 32.6515L15.1197 32.6512C14.2732 32.6512 13.5814 31.8508 13.5814 30.8692C13.5814 30.3751 13.7525 29.9171 14.0656 29.5748C14.3522 29.2584 14.7276 29.084 15.1197 29.084H17.1194C17.1456 29.084 17.1721 29.0774 17.1984 29.0774H22.4295C22.9731 29.0774 23.4177 28.6328 23.4177 28.0892C23.4177 27.5456 22.9731 27.101 22.4295 27.101H18.1075V20.1801C18.1075 18.2168 19.7019 16.6224 21.6652 16.6224H26.7547C28.7147 16.6224 30.3124 18.2168 30.3124 20.1801V28.0957C30.3124 28.6425 30.7537 29.0839 31.3006 29.0839H33.297C34.1469 29.0839 34.8354 29.8842 34.8354 30.8694C34.8354 31.0507 34.8124 31.2252 34.7662 31.3966C34.6246 31.9238 34.9374 32.4638 35.4646 32.6087C35.9882 32.7504 36.5318 32.4375 36.6735 31.9104C36.7656 31.5743 36.8118 31.2218 36.8118 30.8694C36.8118 28.794 35.2338 27.1074 33.2971 27.1074L33.2965 27.1073ZM26.4054 34.6274C26.3034 35.7507 25.3578 36.6336 24.2083 36.6336C23.0587 36.6336 22.1165 35.7507 22.0145 34.6274H26.4056H26.4054Z" fill="#4A6163"/>
</svg>
