<svg width="49" height="49" viewBox="0 0 49 49" fill="none" xmlns="http://www.w3.org/2000/svg">
<rect x="0.5" y="0.5" width="48" height="48" rx="4.5" fill="#FFC94B" stroke="#FFC94B"/>
<path d="M33.7006 16.2284C31.6403 14.0025 28.8336 12.6117 25.8142 12.3204C22.7948 12.029 19.7741 12.8579 17.3264 14.6488C14.8785 16.4398 13.1743 19.0682 12.5383 22.0339C11.902 24.9995 12.3781 28.0957 13.8758 30.7334L12.6849 34.9014C12.5346 35.4112 12.6322 35.9622 12.9488 36.3893C13.2653 36.8166 13.7641 37.0702 14.2957 37.0747C14.4209 37.0754 14.5458 37.0614 14.6678 37.0331L19.6158 35.9404C20.1709 36.1852 20.743 36.3894 21.3277 36.5507C21.5616 36.6308 21.8181 36.6104 22.0363 36.4943C22.2546 36.3784 22.415 36.1771 22.4795 35.9385C22.5438 35.6998 22.5065 35.4451 22.3762 35.2351C22.246 35.0251 22.0346 34.8784 21.7922 34.83C21.2064 34.6679 20.6356 34.4558 20.0863 34.1958C19.9072 34.1109 19.7052 34.0879 19.5116 34.1302L14.4325 35.2557L15.7007 30.8673C15.7699 30.626 15.7342 30.3664 15.6024 30.1528C14.2344 27.915 13.7466 25.2486 14.2341 22.6716C14.7214 20.0946 16.1491 17.7905 18.2399 16.2068C20.3308 14.6231 22.9355 13.873 25.5483 14.102C28.1612 14.3311 30.5956 15.523 32.379 17.4461C33.3749 18.5126 34.1374 19.7753 34.6178 21.1533C35.0982 22.5312 35.2857 23.9942 35.1686 25.4489C35.0079 27.3919 34.3181 29.254 33.1739 30.8327C32.0297 32.4116 30.4751 33.6467 28.6784 34.4042C28.4487 34.4874 28.2631 34.6611 28.165 34.8848C28.0667 35.1085 28.0643 35.3628 28.1586 35.5882C28.2527 35.8136 28.4352 35.9906 28.6634 36.078C28.8915 36.1653 29.1455 36.1555 29.366 36.0506C31.4665 35.1658 33.2843 33.7222 34.6219 31.8765C35.9593 30.0311 36.7652 27.8543 36.9522 25.5826C37.0899 23.8832 36.872 22.1735 36.3122 20.5629C35.7524 18.9523 34.8632 17.476 33.701 16.2282L33.7006 16.2284Z" fill="#4A6163"/>
<path d="M28.3921 21.6765C28.3518 20.3799 27.6355 19.1991 26.5043 18.5642C25.3729 17.9293 23.9918 17.9333 22.864 18.5744C21.7363 19.2157 21.0267 20.4005 20.9938 21.6975C20.9938 22.0165 21.1641 22.3114 21.4403 22.4709C21.7168 22.6306 22.0572 22.6306 22.3335 22.4709C22.6099 22.3114 22.7801 22.0164 22.7801 21.6975C22.7596 21.1771 22.9519 20.6707 23.3129 20.2954C23.6738 19.9198 24.1722 19.7077 24.6929 19.7077C25.2138 19.7077 25.712 19.9198 26.073 20.2954C26.4339 20.6708 26.6262 21.1771 26.6058 21.6975C26.6058 22.0725 26.0699 22.6948 25.5905 23.2426C25.1977 23.6675 24.8411 24.1245 24.5247 24.6091C23.6703 26.0084 23.7864 27.7798 23.8013 27.9793C23.82 28.2031 23.9222 28.4116 24.0878 28.5633C24.2533 28.7151 24.4699 28.7988 24.6944 28.7981H24.7332C24.9638 28.7889 25.1819 28.6907 25.3418 28.5242C25.5016 28.3577 25.5907 28.1357 25.5905 27.905V27.4882V27.39C25.5952 26.7478 25.7556 26.1164 26.058 25.55C26.3259 25.1521 26.6245 24.7759 26.9511 24.4245C27.6716 23.6028 28.4129 22.7514 28.407 21.7004V21.6797L28.3921 21.6765Z" fill="#4A6163"/>
<path d="M25.576 30.4593C25.576 30.9527 25.176 31.3525 24.6828 31.3525C24.1896 31.3525 23.7897 30.9527 23.7897 30.4593C23.7897 29.9661 24.1896 29.5662 24.6828 29.5662C25.176 29.5662 25.576 29.9661 25.576 30.4593Z" fill="#4A6163"/>
</svg>
