<svg width="48" height="48" viewBox="0 0 48 48" fill="none" xmlns="http://www.w3.org/2000/svg">
<rect x="47.5802" y="47.5802" width="47.1604" height="47.1604" rx="3.77843" transform="rotate(180 47.5802 47.5802)" fill="#FFC94B" stroke="#FFC94B" stroke-width="0.83965"/>
<path d="M34.5435 23.616C34.5418 23.7527 34.5168 23.888 34.4698 24.0165C34.3335 24.3803 34.0147 24.6447 33.6321 24.7115L33.5079 24.7115L18.941 24.7667C18.5596 24.7667 18.2505 24.4576 18.2505 24.0764C18.2505 23.6951 18.5596 23.3858 18.941 23.3858L32.8865 23.3858L27.2851 15.7594C27.1652 15.6132 27.1104 15.4241 27.1338 15.2363C27.1571 15.0484 27.2564 14.8785 27.4087 14.7661C27.5608 14.6536 27.7526 14.6087 27.9388 14.6417C28.1253 14.6745 28.2899 14.7825 28.3943 14.9402L34.3178 22.9809C34.4604 23.1621 34.5396 23.3854 34.5433 23.616L34.5435 23.616ZM33.5538 26.3776C33.5542 26.5481 33.4901 26.7126 33.3744 26.8378L27.6855 33.1294C27.5692 33.2843 27.3931 33.3832 27.2001 33.402C27.0071 33.4208 26.8154 33.3575 26.6714 33.2279C26.5274 33.098 26.4445 32.9138 26.443 32.72C26.4416 32.5262 26.5217 32.3408 26.6637 32.2089L32.3526 25.9173C32.476 25.7818 32.6479 25.7007 32.8309 25.692C33.014 25.6835 33.193 25.7478 33.3283 25.8712C33.4723 26 33.5544 26.1843 33.5538 26.3776L33.5538 26.3776ZM17.6014 24.0763L17.6016 24.0763C17.6016 24.4576 17.2923 24.7667 16.9111 24.7667L14.8308 24.7667C14.4488 24.7667 14.1383 24.4584 14.1359 24.0763C14.1359 23.6951 14.4449 23.3858 14.8262 23.3858L16.9066 23.3858C17.2885 23.3858 17.599 23.6943 17.6016 24.0763L17.6014 24.0763Z" fill="#4A6163"/>
</svg>
