<svg width="48" height="48" viewBox="0 0 48 48" fill="none" xmlns="http://www.w3.org/2000/svg">
<path d="M22.7128 33.4258C23.0729 33.4258 23.4055 33.2338 23.5857 32.9219C23.7656 32.61 23.7656 32.226 23.5857 31.9141C23.4055 31.6022 23.0729 31.4102 22.7128 31.4102C20.4539 31.4149 18.2818 30.5395 16.6575 28.9697C15.0331 27.4 14.0841 25.2594 14.0114 23.0018C13.9389 20.7439 14.7487 18.5468 16.269 16.8763C17.7892 15.2055 19.9004 14.1925 22.155 14.0522C23.7397 13.9509 25.322 14.2857 26.73 15.0203C28.1377 15.7551 29.3175 16.8615 30.1408 18.2194C30.9641 19.5773 31.3997 21.1348 31.4002 22.7228C31.3949 24.8811 30.5906 26.9612 29.1425 28.5617C28.8733 28.8615 28.7305 29.2539 28.7444 29.6566C28.7581 30.0593 28.9274 30.4411 29.2165 30.7218L34.3127 35.7309C34.572 35.9688 34.9368 36.054 35.2746 35.9559C35.6126 35.8578 35.8749 35.5905 35.9667 35.2508C36.0584 34.9109 35.9663 34.548 35.7236 34.293L30.9163 29.5899C32.6758 27.4978 33.5656 24.8104 33.4025 22.0813C33.2393 19.3525 32.0356 16.7902 30.0394 14.9224C28.003 13.0809 25.3367 12.0925 22.5921 12.1613C19.8472 12.2303 17.2341 13.3515 15.2927 15.2929C13.3512 17.2344 12.2301 19.8478 12.1613 22.5923C12.0923 25.337 13.0807 28.0035 14.9222 30.0396C15.9227 31.1037 17.1294 31.9528 18.4688 32.5351C19.8083 33.1171 21.2524 33.4203 22.7128 33.426L22.7128 33.4258Z" fill="#4A6163"/>
</svg>
