<svg width="49" height="49" viewBox="0 0 49 49" fill="none" xmlns="http://www.w3.org/2000/svg">
<rect x="0.5" y="0.5" width="48" height="48" rx="4.5" stroke="#FFC94B"/>
<path d="M23.9824 31.3717C19.9069 31.3717 16.5897 28.0546 16.5897 23.9756C16.5897 20.3874 19.1517 17.325 22.6789 16.6961C23.108 16.6187 23.547 16.5798 23.9826 16.5798C28.0612 16.5798 31.3787 19.897 31.3787 23.9725C31.3787 28.048 28.0616 31.3686 23.9826 31.3686L23.9824 31.3717ZM23.0176 18.6031C20.4134 19.0678 18.5256 21.3266 18.5256 23.9758C18.5256 26.9865 20.9749 29.4358 23.9824 29.4358C26.9899 29.4358 29.4424 26.9865 29.4424 23.9758C29.4424 20.9651 26.9931 18.519 23.9824 18.519C23.6596 18.519 23.3339 18.5479 23.0176 18.6028V18.6031Z" fill="#FFC94B"/>
<path d="M21.5913 34.7309C21.5171 34.7309 21.4397 34.7212 21.3623 34.702C16.4059 33.495 12.9465 29.0839 12.9465 23.976C12.9465 22.0239 13.4629 20.1071 14.4406 18.4289C14.7085 17.9674 15.3023 17.8094 15.7636 18.0804C16.2251 18.3483 16.3831 18.9421 16.112 19.4034C15.3084 20.7845 14.8825 22.3656 14.8825 23.976C14.8825 28.187 17.7353 31.824 21.8206 32.821C22.3402 32.9469 22.6595 33.473 22.5336 33.9892C22.427 34.4311 22.0303 34.7282 21.5945 34.7282L21.5913 34.7309Z" fill="#FFC94B"/>
<path d="M26.6834 34.6501C26.2607 34.6501 25.8702 34.3694 25.7507 33.9402C25.6087 33.4238 25.9087 32.8916 26.4251 32.7496C29.5939 31.8686 32.0464 29.3355 32.8272 26.141C32.9531 25.6214 33.4757 25.3053 33.9953 25.428C34.5149 25.5539 34.8342 26.08 34.7083 26.5962C33.7628 30.4718 30.7877 33.5438 26.9446 34.6115C26.8576 34.634 26.7703 34.6471 26.6864 34.6471L26.6834 34.6501Z" fill="#FFC94B"/>
<path d="M33.7181 22.3655C33.289 22.3655 32.8985 22.0784 32.7823 21.6461C31.7304 17.6609 28.1098 14.876 23.9825 14.876C22.3111 14.876 20.6782 15.3311 19.2583 16.1957C18.8 16.4732 18.2064 16.3281 17.9289 15.873C17.6514 15.4147 17.7966 14.8211 18.2516 14.5436C19.9748 13.4949 21.9561 12.9431 23.9827 12.9431C28.9876 12.9431 33.3763 16.3184 34.6538 21.1525C34.7893 21.6689 34.4829 22.1979 33.9665 22.3367C33.8827 22.3592 33.802 22.3689 33.7179 22.3689L33.7181 22.3655Z" fill="#FFC94B"/>
<path d="M21.4041 15.2114C21.3363 15.2114 21.2653 15.205 21.1943 15.1889C20.6715 15.0727 20.3425 14.5565 20.4553 14.0369L21.1748 10.7615C21.2715 10.3163 21.6652 10 22.1203 10H25.8537C26.3281 10 26.7347 10.3453 26.8089 10.8132L27.3285 14.0401C27.4124 14.5694 27.0543 15.0663 26.525 15.1501C25.9989 15.2372 25.502 14.8758 25.4149 14.3465L25.0276 11.9329H22.8978L22.3461 14.4467C22.2461 14.8986 21.846 15.2082 21.4005 15.2082L21.4041 15.2114Z" fill="#FFC94B"/>
<path d="M32.5915 19.7192C32.3946 19.7192 32.1978 19.6611 32.0269 19.5352C31.5946 19.2221 31.4976 18.6157 31.8107 18.183L33.2435 16.2017L31.7365 14.6947L29.568 16.0821C29.1161 16.3693 28.5193 16.2402 28.2322 15.7886C27.945 15.3367 28.0741 14.7399 28.5257 14.4528L31.3492 12.6458C31.7334 12.4005 32.2335 12.4554 32.5562 12.7781L35.1957 15.4176C35.5313 15.7532 35.5734 16.2825 35.2956 16.6696L33.382 19.319C33.1916 19.5804 32.898 19.7191 32.598 19.7191L32.5915 19.7192Z" fill="#FFC94B"/>
<path d="M33.7661 27.3384C33.2982 27.3384 32.8884 26.9996 32.8109 26.5252C32.7271 25.9959 33.0852 25.499 33.6145 25.4152L36.0282 25.0279V22.8981L33.5143 22.3463C32.9915 22.2301 32.6626 21.7139 32.7754 21.1942C32.8916 20.6714 33.4046 20.3425 33.9274 20.4553L37.2028 21.1747C37.648 21.2714 37.9643 21.6651 37.9643 22.1202V25.8536C37.9643 26.328 37.619 26.7346 37.1511 26.8088L33.9242 27.3284C33.8725 27.3381 33.8208 27.3413 33.7694 27.3413L33.7661 27.3384Z" fill="#FFC94B"/>
<path d="M31.8557 35.4703C31.6589 35.4703 31.4588 35.4089 31.2879 35.2862L28.6385 33.3727C28.2062 33.0596 28.1092 32.4531 28.4223 32.0205C28.7355 31.5882 29.3386 31.488 29.7745 31.8044L31.7559 33.2372L33.2629 31.7302L31.8754 29.5616C31.5882 29.1097 31.7173 28.5129 32.1689 28.2258C32.6208 27.9387 33.2176 28.071 33.5047 28.5194L35.3117 31.3429C35.5571 31.727 35.5022 32.2271 35.1794 32.5499L32.5399 35.1893C32.3527 35.3766 32.1044 35.4733 31.8558 35.4733L31.8557 35.4703Z" fill="#FFC94B"/>
<path d="M25.8441 37.9579H22.1107C21.6364 37.9579 21.2297 37.6126 21.1555 37.1447L20.6359 33.9178C20.552 33.3885 20.9102 32.8916 21.4395 32.8077C21.9656 32.7239 22.4656 33.082 22.5495 33.6113L22.9368 36.025H25.0666L25.6184 33.5111C25.7346 32.9883 26.2476 32.6593 26.7704 32.7721C27.2933 32.8884 27.6222 33.4046 27.5094 33.9242L26.79 37.1996C26.6933 37.6448 26.2995 37.9611 25.8445 37.9611L25.8441 37.9579Z" fill="#FFC94B"/>
<path d="M16.0994 35.4634C15.8508 35.4634 15.6025 35.3667 15.4153 35.1795L12.7758 32.54C12.4402 32.2044 12.3982 31.6751 12.6759 31.288L14.5895 28.6386C14.9026 28.2063 15.5058 28.1094 15.9417 28.4225C16.374 28.7356 16.4709 29.342 16.1578 29.7746L14.725 31.756L16.232 33.263L18.4006 31.8755C18.8524 31.5884 19.4492 31.7175 19.7363 32.1691C20.0235 32.621 19.8944 33.2178 19.4428 33.5049L16.6193 35.3119C16.458 35.4153 16.2772 35.4635 16.0964 35.4635L16.0994 35.4634Z" fill="#FFC94B"/>
<path d="M14.2466 27.529C14.1788 27.529 14.1079 27.5225 14.0369 27.5065L10.7615 26.787C10.3163 26.6903 10 26.2966 10 25.8415V22.1081C10 21.6337 10.3453 21.2271 10.8132 21.1529L14.0401 20.6333C14.5694 20.5494 15.0663 20.9075 15.1501 21.4369C15.234 21.9661 14.8758 22.463 14.3465 22.5469L11.9329 22.9342V25.064L14.4467 25.6158C14.9696 25.732 15.2985 26.2482 15.1857 26.7678C15.0858 27.2197 14.6856 27.5293 14.2402 27.5293L14.2466 27.529Z" fill="#FFC94B"/>
<path d="M15.2765 19.8874C14.957 19.8874 14.6441 19.7294 14.4601 19.4423L12.6531 16.6188C12.4078 16.2346 12.4627 15.7345 12.7855 15.4118L15.4249 12.7723C15.7605 12.4367 16.2898 12.3946 16.6769 12.6724L19.3263 14.586C19.7586 14.8991 19.8556 15.5055 19.5424 15.9381C19.2293 16.3704 18.6261 16.4674 18.1903 16.1543L16.2089 14.7215L14.7019 16.2285L16.0894 18.397C16.3765 18.8489 16.2474 19.4457 15.7958 19.7328C15.6346 19.8362 15.4538 19.8844 15.2762 19.8844L15.2765 19.8874Z" fill="#FFC94B"/>
</svg>
