<svg width="48" height="48" viewBox="0 0 48 48" fill="none" xmlns="http://www.w3.org/2000/svg">
<path d="M16.8448 19.6931C17.9991 19.6931 19.0445 20.1607 19.8009 20.9173C19.9054 21.0218 20.0036 21.1316 20.0966 21.2461L26.9743 17.1341C26.764 16.6357 26.6479 16.0874 26.6479 15.5129C26.6479 14.3586 27.1156 13.3132 27.8722 12.5575C28.6286 11.8011 29.674 11.3333 30.8282 11.3333C31.9825 11.3333 33.0279 11.8009 33.7836 12.5575C34.54 13.314 35.0079 14.3593 35.0079 15.5129C35.0079 16.6671 34.5402 17.7125 33.7836 18.4689C33.0272 19.2254 31.9818 19.6932 30.8282 19.6932C29.674 19.6932 28.6286 19.2255 27.8722 18.4689C27.7677 18.3645 27.6686 18.2546 27.5765 18.1402L20.6988 22.2521C20.9091 22.7505 21.0252 23.2989 21.0252 23.8734C21.0252 24.4264 20.9177 24.9539 20.7234 25.4363L28.1008 29.6956C28.1268 29.7086 28.1522 29.7225 28.1775 29.7393C28.4463 29.9206 28.5177 30.2854 28.3358 30.5541C28.1692 30.8015 28.0386 31.0702 27.9525 31.3529C27.8688 31.6263 27.8243 31.922 27.8243 32.2331C27.8243 33.0626 28.1608 33.8136 28.7045 34.3574C29.2483 34.9011 29.9993 35.2376 30.8295 35.2376C31.659 35.2376 32.41 34.9011 32.9538 34.3574C33.4976 33.8136 33.834 33.0626 33.834 32.2331C33.834 31.4036 33.4975 30.6518 32.9538 30.1081C32.41 29.5643 31.659 29.2279 30.8295 29.2279C30.5047 29.2279 30.242 28.9645 30.242 28.6404C30.242 28.3156 30.5054 28.0529 30.8295 28.0529C31.9838 28.0529 33.0291 28.5205 33.7848 29.2771C34.5413 30.0336 35.0091 31.0789 35.0091 32.2332C35.0091 33.3875 34.5415 34.432 33.7848 35.1886C33.0284 35.945 31.9831 36.4128 30.8295 36.4128C29.6752 36.4128 28.6299 35.9452 27.8734 35.1886C27.117 34.4321 26.6492 33.3868 26.6492 32.2332C26.6492 31.8139 26.7129 31.4037 26.8327 31.0129C26.8934 30.8147 26.9672 30.6243 27.0531 30.4414L20.1379 26.4493C20.0334 26.5822 19.9213 26.7097 19.8023 26.8288C19.0459 27.5852 18.0006 28.053 16.8463 28.053C15.692 28.053 14.6466 27.5854 13.8909 26.8288C13.1345 26.0723 12.6667 25.027 12.6667 23.8727C12.6667 22.7184 13.1343 21.6731 13.8909 20.9166C14.6474 20.1602 15.6927 19.6924 16.8463 19.6924L16.8448 19.6931ZM32.9523 13.3886C32.4085 12.8448 31.6575 12.5084 30.828 12.5084C29.9985 12.5084 29.2467 12.8448 28.703 13.3886C28.1592 13.9316 27.8228 14.6834 27.8228 15.5129C27.8228 16.3424 28.1592 17.0941 28.703 17.6379C29.2467 18.1816 29.9978 18.5181 30.828 18.5181C31.6575 18.5181 32.4085 18.1816 32.9523 17.6379C33.496 17.0941 33.8324 16.3431 33.8324 15.5129C33.8324 14.6834 33.496 13.9316 32.9523 13.3886V13.3886ZM18.9692 21.7493C18.4254 21.2055 17.6744 20.8691 16.8442 20.8691C16.0147 20.8691 15.2637 21.2055 14.7199 21.7493C14.1761 22.2931 13.8397 23.0441 13.8397 23.8743C13.8397 24.7037 14.1761 25.4555 14.7199 25.9992C15.2637 26.543 16.0147 26.8794 16.8442 26.8794C17.6737 26.8794 18.4255 26.543 18.9692 25.9992C19.5129 25.4555 19.8494 24.7044 19.8494 23.8743C19.8494 23.0448 19.5129 22.293 18.9692 21.7493V21.7493Z" fill="#4A6163"/>
</svg>
