<svg width="20" height="20" viewBox="0 0 20 20" fill="none" xmlns="http://www.w3.org/2000/svg">
<path d="M6.82712 15.4253C6.61752 15.4051 6.42443 15.3009 6.29041 15.1358C6.15638 14.9706 6.09241 14.758 6.1125 14.5448L6.38784 11.5097L4.40792 9.22148C4.22277 9.00686 4.16283 8.70854 4.25033 8.43722C4.33795 8.1659 4.55993 7.96176 4.83405 7.90062L7.75148 7.22685L9.28562 4.60519C9.42848 4.36044 9.68762 4.21045 9.96742 4.21045C10.2471 4.21045 10.5062 4.36045 10.6492 4.60519L12.1833 7.23354L15.1007 7.90062C15.3737 7.96357 15.5939 8.16837 15.68 8.43945C15.7661 8.71054 15.7054 9.00776 15.5202 9.22148L13.5469 11.503L13.8222 14.545C13.847 14.8277 13.724 15.1028 13.4983 15.2695C13.2726 15.4362 12.9774 15.4702 12.7209 15.3588L9.96742 14.158L7.21396 15.3588H7.21385C7.09242 15.4136 6.9595 15.4366 6.82713 15.4254L6.82712 15.4253ZM12.1177 13.3439L11.9341 11.3093C11.913 11.089 11.9818 10.8696 12.1242 10.7023L13.4485 9.17459L11.4948 8.72759V8.72771C11.2834 8.6786 11.1011 8.54355 10.99 8.35405L9.96725 6.59959L8.94448 8.35405H8.94459C8.83354 8.54356 8.65116 8.67859 8.43979 8.72771L6.4861 9.1747L7.80385 10.7024V10.7023C7.94871 10.8685 8.01992 11.0881 8.0005 11.3093L7.8169 13.3373L9.6525 12.5367H9.65262C9.8534 12.4485 10.0812 12.4485 10.282 12.5367L12.1176 13.3439L12.1177 13.3439Z" fill="#FFC94B"/>
<path d="M10.0003 5.26318L11.4481 8.00729L14.5053 8.53626L12.3429 10.7612L12.7845 13.8322L10.0003 12.4632L7.21602 13.8322L7.65767 10.7612L5.49527 8.53626L8.55246 8.00729L10.0003 5.26318Z" fill="#FFC94B"/>
</svg>
