<svg width="48" height="48" viewBox="0 0 48 48" fill="none" xmlns="http://www.w3.org/2000/svg">
<path d="M16.3851 37.0208C15.882 36.9723 15.4186 36.7224 15.097 36.326C14.7753 35.9295 14.6218 35.4193 14.67 34.9077L15.3308 27.6233L10.579 22.1317C10.1346 21.6166 9.99078 20.9006 10.2008 20.2495C10.4111 19.5983 10.9438 19.1084 11.6017 18.9616L18.6035 17.3446L22.2855 11.0526C22.6283 10.4652 23.2503 10.1052 23.9218 10.1052C24.593 10.1052 25.215 10.4652 25.5581 11.0526L29.2398 17.3606L36.2416 18.9616C36.8968 19.1127 37.4253 19.6042 37.632 20.2548C37.8386 20.9055 37.6928 21.6188 37.2485 22.1317L32.5125 27.6073L33.1733 34.9081C33.2328 35.5865 32.9376 36.2468 32.396 36.647C31.8541 37.0471 31.1456 37.1286 30.5301 36.8613L23.9218 33.9794L17.3135 36.8613H17.3132C17.0218 36.9928 16.7028 37.048 16.3851 37.0212L16.3851 37.0208ZM29.0824 32.0255L28.6418 27.1425C28.5912 26.6137 28.7562 26.0871 29.098 25.6856L32.2764 22.0192L27.5876 20.9464V20.9466C27.0802 20.8288 26.6426 20.5047 26.376 20.0499L23.9214 15.8392L21.4667 20.0499H21.467C21.2005 20.5047 20.7628 20.8288 20.2555 20.9466L15.5666 22.0194L18.7292 25.6859V25.6856C19.0769 26.0845 19.2478 26.6116 19.2012 27.1425L18.7605 32.0097L23.166 30.0883H23.1663C23.6481 29.8764 24.1948 29.8764 24.6767 30.0883L29.0821 32.0255L29.0824 32.0255Z" fill="#FFC94B"/>
</svg>
