<svg width="49" height="49" viewBox="0 0 49 49" fill="none" xmlns="http://www.w3.org/2000/svg">
<rect x="0.5" y="0.5" width="48" height="48" rx="4.5" fill="#FFC94B" stroke="#FFC94B"/>
<path d="M24.3283 22.5062H34.9237C35.1571 22.5062 35.3692 22.4622 35.5536 22.3765C35.7398 22.2892 35.9101 22.1562 36.0587 21.9775C36.2063 21.8004 36.3084 21.6103 36.3605 21.4111C36.4144 21.2104 36.4209 20.9933 36.3801 20.7639L35.2573 14.4667C35.1937 14.1102 35.0108 13.8049 34.7537 13.5903C34.4976 13.3757 34.1646 13.2491 33.7997 13.2491H14.8559C14.492 13.2491 14.1583 13.3757 13.9019 13.5903C13.6448 13.8049 13.4621 14.1101 13.3984 14.4667L12.2755 20.7639C12.2347 20.9933 12.2412 21.2111 12.2951 21.4111C12.3482 21.6101 12.4493 21.8004 12.5979 21.9775C12.7465 22.1554 12.917 22.2892 13.1029 22.3765C13.2874 22.463 13.4987 22.5062 13.7329 22.5062H24.3283ZM14.8943 20.9468C14.5492 20.9468 14.2693 20.667 14.2693 20.3226C14.2693 19.9775 14.5492 19.6976 14.8943 19.6976H33.7619C34.107 19.6976 34.3868 19.9775 34.3868 20.3226C34.3868 20.6677 34.107 20.9468 33.7619 20.9468H14.8943ZM20.1128 36.1924V31.9745C20.1128 30.8141 20.587 29.7607 21.3506 28.9968C22.1145 28.233 23.1686 27.759 24.3283 27.759C25.4877 27.759 26.5421 28.2332 27.306 28.9968C28.0698 29.7607 28.5438 30.8149 28.5438 31.9745V36.1924H32.5871C33.0336 36.1924 33.4398 36.0088 33.7352 35.7143C34.0299 35.4189 34.2133 35.0125 34.2133 34.5662V23.7557H14.4438V34.5662C14.4438 35.0127 14.6275 35.4189 14.9219 35.7143C15.2173 36.009 15.6237 36.1924 16.07 36.1924H20.1134H20.1128ZM27.2946 36.1924V31.9745C27.2946 31.1592 26.9609 30.4183 26.4232 29.8799C25.8855 29.3422 25.1436 29.0075 24.3285 29.0075C23.5133 29.0075 22.7724 29.3412 22.2339 29.8799C21.6962 30.4175 21.3625 31.1594 21.3625 31.9745V36.1924H27.295H27.2946ZM35.4619 23.7042V34.5663C35.4619 35.3578 35.1388 36.0767 34.6174 36.5973C34.0967 37.118 33.3778 37.4419 32.5863 37.4419H16.0686C15.2771 37.4419 14.5581 37.1187 14.0376 36.5973C13.5169 36.0767 13.193 35.3578 13.193 34.5663V23.7042C12.9785 23.6627 12.772 23.5957 12.5753 23.5035C12.2203 23.3371 11.9053 23.0939 11.6401 22.7781C11.3741 22.4607 11.1896 22.1082 11.0885 21.7288C10.9882 21.351 10.9726 20.9552 11.0445 20.5496L12.1673 14.2523C12.2848 13.5962 12.6235 13.0333 13.1001 12.6341C13.5774 12.2351 14.1895 12 14.8545 12H33.7983C34.4633 12 35.0754 12.2351 35.5528 12.6341C36.0294 13.0331 36.3681 13.5963 36.4855 14.2523L37.6083 20.5496C37.6801 20.9552 37.6654 21.3508 37.5643 21.7288C37.4632 22.1082 37.2788 22.4607 37.0128 22.7781C36.7485 23.0948 36.4333 23.3378 36.0776 23.5035C35.8808 23.5957 35.6744 23.6627 35.4598 23.7042H35.4619Z" fill="#4A6163"/>
</svg>
