<svg width="48" height="48" viewBox="0 0 48 48" fill="none" xmlns="http://www.w3.org/2000/svg">
<path fill-rule="evenodd" clip-rule="evenodd" d="M14.9626 14.8451H18.4276C18.5623 13.7932 19.019 12.8313 19.7147 12.1357C20.4162 11.4342 21.351 11 22.4418 11H25.6791C26.7703 11 27.7052 11.4339 28.4062 12.1357C29.1018 12.8313 29.5588 13.7937 29.6937 14.8451H33.1619C33.6912 14.8451 34.1243 15.2782 34.1243 15.8075C34.1243 16.3368 33.6912 16.7699 33.1619 16.7699H14.9624C14.4331 16.7699 14 16.3368 14 15.8075C14 15.2782 14.4331 14.8451 14.9624 14.8451H14.9626ZM18.737 36.009H29.3882C31.0776 36.009 32.46 34.6266 32.46 32.9366V18.695H15.6648V32.9366C15.6648 34.6266 17.0472 36.009 18.7366 36.009H18.737ZM20.2124 22.2789C20.7417 22.2789 21.1748 22.712 21.1748 23.2413V31.4616C21.1748 31.9909 20.7416 32.424 20.2124 32.424C19.6831 32.424 19.2494 31.9909 19.2494 31.4616V23.2413C19.2494 22.712 19.6825 22.2789 20.2124 22.2789ZM27.9129 22.2789C28.4428 22.2789 28.8759 22.712 28.8759 23.2413V31.4616C28.8759 31.9909 28.4428 32.424 27.9129 32.424C27.3836 32.424 26.9505 31.9909 26.9505 31.4616V23.2413C26.9505 22.712 27.3837 22.2789 27.9129 22.2789ZM24.0628 22.2789C24.5921 22.2789 25.0252 22.712 25.0252 23.2413V31.4616C25.0252 31.9909 24.5921 32.424 24.0628 32.424C23.5335 32.424 23.1004 31.9909 23.1004 31.4616V23.2413C23.1004 22.712 23.5335 22.2789 24.0628 22.2789ZM20.3696 14.8444H27.7527C27.6421 14.3132 27.397 13.8397 27.0496 13.4922C26.6957 13.1384 26.2259 12.919 25.6797 12.919H22.4424C21.8962 12.919 21.4269 13.1381 21.0725 13.4922C20.7251 13.8396 20.4803 14.3132 20.3694 14.8444H20.3696Z" fill="#ffffff"/>
</svg>
