<svg width="46" height="46" viewBox="0 0 46 46" fill="none" xmlns="http://www.w3.org/2000/svg">
<path d="M22.914 40.1971L22.914 40.1971C23.3857 39.9859 23.9253 39.9859 24.397 40.1971L24.1991 40.6391L24.397 40.1971L27.0106 41.3676L27.0107 41.3676C27.9314 41.7801 29.0148 41.4896 29.6057 40.6726L31.284 38.3518L31.2841 38.3518C31.5869 37.9331 32.0538 37.663 32.5686 37.6102L32.5687 37.6102M22.914 40.1971L32.6197 38.1075L32.5687 37.6102M22.914 40.1971L20.3003 41.3676L20.3003 41.3676C19.3796 41.7801 18.2962 41.4897 17.7052 40.6726L16.0269 38.3518L16.0269 38.3518C15.7241 37.9331 15.2571 37.663 14.7424 37.6102C14.7424 37.6102 14.7423 37.6102 14.7423 37.6102L11.8936 37.3173C10.8902 37.214 10.0972 36.421 9.99386 35.4176C9.99385 35.4176 9.99385 35.4175 9.99385 35.4175L9.70098 32.5688L22.914 40.1971ZM32.5687 37.6102L35.4173 37.3173L32.5687 37.6102ZM37.3171 35.4175C37.2138 36.4209 36.4208 37.214 35.4174 37.3173L38.1074 32.6199L37.61 32.5688L37.3171 35.4175ZM37.3171 35.4175L37.3171 35.4176L37.8145 35.4687L37.3171 35.4175ZM40.9654 30.0111L40.6724 29.6059L38.3516 31.2842L38.3516 31.2842C37.933 31.587 37.6628 32.054 37.61 32.5687L38.6446 31.6894L40.9654 30.0111ZM40.9654 30.0111L40.6724 29.6059M40.9654 30.0111C41.9744 29.2813 42.333 27.9434 41.8238 26.8065L40.6533 24.1928C40.5003 23.8511 40.5003 23.4602 40.6533 23.1185M40.6724 29.6059L14.6913 9.20377C15.064 9.16552 15.4023 8.96992 15.6218 8.6665L17.3 6.34574C18.0298 5.33669 19.3678 4.97809 20.5047 5.48711L23.1183 6.65788C23.46 6.81087 23.8509 6.81087 24.1926 6.65788L26.8063 5.48711C27.9432 4.97808 29.2811 5.33669 30.0109 6.34574L31.6892 8.6665C31.9087 8.96992 32.247 9.16552 32.6197 9.20377L35.4685 9.49666M40.6724 29.6059C41.4895 29.0149 41.7799 27.9315 41.3674 27.0109L41.3674 27.0108L40.1969 24.3972L40.1969 24.3971C39.9857 23.9254 39.9857 23.3858 40.1969 22.9142L40.6533 23.1185M40.6724 29.6059L37.61 14.7426M40.6533 23.1185L41.8238 20.5049C42.333 19.3679 41.9744 18.03 40.9654 17.3002L38.6446 15.622C38.3412 15.4025 38.1456 15.0642 38.1074 14.6914M40.6533 23.1185L40.1969 22.9141L41.3674 20.3005L41.3674 20.3004C41.7799 19.3797 41.4895 18.2963 40.6724 17.7054L38.3516 16.0271L38.3516 16.0271C37.933 15.7242 37.6628 15.2573 37.61 14.7426M38.1074 14.6914L37.8145 11.8426C37.6869 10.6035 36.7076 9.62424 35.4685 9.49666M38.1074 14.6914L37.61 14.7426M38.1074 14.6914L37.61 14.7425L37.3171 11.8938M35.4685 9.49666L35.4174 9.99404M35.4685 9.49666L35.4174 9.99404M14.7423 9.70116L11.8936 9.99403C11.8936 9.99403 11.8936 9.99403 11.8935 9.99404C10.8902 10.0974 10.0972 10.8904 9.99386 11.8937L14.7423 9.70116ZM14.7423 9.70116C15.257 9.64834 15.724 9.3782 16.0269 8.95956L16.0269 8.9595L17.7052 6.63875C18.2961 5.82167 19.3796 5.53122 20.3004 5.94346L22.9139 7.11419L22.914 7.11422C23.3857 7.32543 23.9252 7.32541 24.3969 7.11423L24.397 7.11419L27.0106 5.94346C27.9313 5.53122 29.0148 5.82165 29.6058 6.63876L31.284 8.9595L31.2841 8.95955C31.5869 9.37818 32.0539 9.6483 32.5686 9.70115C32.5686 9.70115 32.5686 9.70115 32.5687 9.70116L35.4173 9.99403L14.7423 9.70116ZM35.4174 9.99404C36.4208 10.0974 37.2138 10.8904 37.3171 11.8938M35.4174 9.99404L37.61 14.7426M37.3171 11.8938L37.813 11.8427L37.3171 11.8937L37.3171 11.8938ZM9.70098 14.7425L9.99385 11.8938L9.70097 32.5687C9.64812 32.054 9.37799 31.5871 8.95938 31.2842L8.95932 31.2842L6.63857 29.6059C6.63856 29.6059 6.63856 29.6059 6.63855 29.6059C5.82149 29.015 5.53104 27.9315 5.94328 27.0108L7.11401 24.3972L7.11404 24.3971C7.32525 23.9255 7.32523 23.3859 7.11405 22.9142L7.11401 22.9141L5.94328 20.3005C5.53104 19.3798 5.82147 18.2964 6.63858 17.7054L8.95932 16.0271L8.95936 16.0271C9.378 15.7243 9.64812 15.2573 9.70097 14.7426C9.70097 14.7425 9.70097 14.7425 9.70098 14.7425ZM16.9079 20.8156L16.5543 20.4621L16.2008 20.8156L13.9704 23.046L13.6168 23.3996L13.9704 23.7531L21.4578 31.2406L21.8114 31.5941L22.165 31.2406L33.659 19.7465L34.0126 19.393L33.6591 19.0394L31.4288 16.809L31.0753 16.4554L30.7217 16.809L21.8115 25.7186L16.9079 20.8156Z" stroke="#4A6163"/>
</svg>
