<svg width="46" height="46" viewBox="0 0 46 46" fill="none" xmlns="http://www.w3.org/2000/svg">
<path fill-rule="evenodd" clip-rule="evenodd" d="M23.1183 40.6534L20.5047 41.8239C19.3678 42.3332 18.0299 41.9746 17.3001 40.9656L15.6218 38.6448C15.4023 38.3414 15.064 38.1458 14.6913 38.1075L11.8424 37.8147C10.6034 37.6871 9.62403 36.7078 9.49648 35.4687L9.20359 32.6199C9.16534 32.2471 8.96974 31.9088 8.66632 31.6894L6.34556 30.0111C5.33651 29.2813 4.97791 27.9434 5.48693 26.8065L6.6577 24.1928C6.81069 23.8511 6.81069 23.4602 6.6577 23.1185L5.48693 20.5049C4.97791 19.3679 5.33651 18.0301 6.34556 17.3002L8.66632 15.622C8.96974 15.4025 9.16534 15.0642 9.20359 14.6914L9.49648 11.8426C9.62406 10.6036 10.6034 9.62421 11.8424 9.49666L14.6913 9.20377C15.064 9.16552 15.4023 8.96992 15.6218 8.6665L17.3001 6.34574C18.0298 5.33669 19.3678 4.97809 20.5047 5.48711L23.1183 6.65788C23.46 6.81087 23.8509 6.81087 24.1926 6.65788L26.8063 5.48711C27.9432 4.97808 29.2811 5.33669 30.0109 6.34574L31.6892 8.6665C31.9087 8.96992 32.247 9.16552 32.6197 9.20377L35.4685 9.49666C36.7076 9.62424 37.6869 10.6036 37.8145 11.8426L38.1074 14.6914C38.1456 15.0642 38.3412 15.4025 38.6446 15.622L40.9654 17.3002C41.9744 18.03 42.333 19.3679 41.8238 20.5049L40.6533 23.1185C40.5003 23.4602 40.5003 23.8511 40.6533 24.1928L41.8238 26.8065C42.333 27.9434 41.9744 29.2813 40.9654 30.0111L38.6446 31.6894C38.3412 31.9088 38.1456 32.2472 38.1074 32.6199L37.8145 35.4687C37.6869 36.7078 36.7076 37.6871 35.4685 37.8147L32.6197 38.1075C32.247 38.1458 31.9087 38.3414 31.6892 38.6448L30.0109 40.9656C29.2811 41.9746 27.9432 42.3332 26.8063 41.8239L24.1926 40.6534C23.851 40.5004 23.46 40.5004 23.1183 40.6534ZM16.5543 21.1691L14.3239 23.3996L21.8114 30.887L33.3055 19.393L31.0753 17.1625L21.8115 26.4256L16.5543 21.1691Z" fill="#FFC94B"/>
</svg>
