<svg width="35" height="35" viewBox="0 0 35 35" fill="none" xmlns="http://www.w3.org/2000/svg">
<path fill-rule="evenodd" clip-rule="evenodd" d="M17.59 30.9318L15.6014 31.8224C14.7363 32.2099 13.7184 31.9371 13.1631 31.1693L11.8861 29.4035C11.7191 29.1727 11.4617 29.0238 11.1781 28.9947L9.01053 28.7719C8.06778 28.6748 7.32263 27.9297 7.22558 26.9869L7.00273 24.8193C6.97363 24.5357 6.8248 24.2783 6.59394 24.1113L4.82814 22.8344C4.06039 22.2791 3.78754 21.2611 4.17484 20.3961L5.06564 18.4074C5.18205 18.1475 5.18205 17.85 5.06564 17.59L4.17484 15.6014C3.78753 14.7363 4.06038 13.7184 4.82814 13.1631L6.59394 11.8861C6.8248 11.7191 6.97363 11.4617 7.00273 11.1781L7.22558 9.01053C7.32265 8.06778 8.06778 7.32263 9.01053 7.22558L11.1781 7.00273C11.4617 6.97363 11.7191 6.8248 11.8861 6.59394L13.1631 4.82814C13.7183 4.06039 14.7363 3.78754 15.6014 4.17484L17.59 5.06564C17.85 5.18204 18.1474 5.18204 18.4074 5.06564L20.3961 4.17484C21.2611 3.78753 22.2791 4.06038 22.8344 4.82814L24.1113 6.59394C24.2783 6.8248 24.5357 6.97363 24.8193 7.00273L26.9869 7.22558C27.9297 7.32265 28.6748 8.06778 28.7719 9.01053L28.9947 11.1781C29.0238 11.4617 29.1727 11.7191 29.4035 11.8861L31.1693 13.1631C31.9371 13.7183 32.2099 14.7363 31.8224 15.6014L30.9318 17.59C30.8154 17.85 30.8154 18.1474 30.9318 18.4074L31.8224 20.3961C32.2099 21.2611 31.9371 22.2791 31.1693 22.8344L29.4035 24.1113C29.1727 24.2783 29.0238 24.5357 28.9947 24.8193L28.7719 26.9869C28.6748 27.9297 27.9297 28.6748 26.9869 28.7719L24.8193 28.9947C24.5357 29.0238 24.2783 29.1727 24.1113 29.4035L22.8344 31.1693C22.2791 31.9371 21.2611 32.2099 20.3961 31.8224L18.4074 30.9318C18.1475 30.8154 17.85 30.8154 17.59 30.9318ZM12.5957 16.1068L10.8986 17.8039L16.5956 23.5009L25.3411 14.7554L23.6442 13.0583L16.5957 20.1063L12.5957 16.1068Z" fill="#FFC94B"/>
</svg>
